<svg width="120" height="120" viewBox="0 0 120 120" fill="none" xmlns="http://www.w3.org/2000/svg">
    <g clip-path="url(#clip0_50_5)">
        <path
            d="M98.6242 0H21.3758C9.57025 0 0 9.57025 0 21.3758V98.6242C0 110.43 9.57025 120 21.3758 120H98.6242C110.43 120 120 110.43 120 98.6242V21.3758C120 9.57025 110.43 0 98.6242 0Z"
            fill="#5FBFB2" />
        <path
            d="M43.4237 61.1964C43.2624 58.8841 42.2944 56.6255 40.3585 54.8509C37.5622 52.2966 33.3946 51.5975 29.9529 53.1839C24.2527 55.8189 22.6664 62.8097 26.1618 67.5957C27.2642 69.1014 28.7161 70.1501 30.3294 70.7954C31.1629 71.118 32.1309 70.9836 32.8568 70.4458L42.3482 63.5088C43.0742 62.971 43.5044 62.1106 43.4506 61.2233L43.4237 61.1964Z"
            fill="#F7F7F7" />
        <path
            d="M86.2137 34.8711L32.4318 74.2912C31.5694 74.9233 31.3828 76.1347 32.0148 76.9971L37.6576 84.6957C38.2897 85.558 39.5011 85.7447 40.3635 85.1127L94.1454 45.6926C95.0077 45.0605 95.1944 43.849 94.5623 42.9867L88.9195 35.2881C88.2875 34.4257 87.076 34.2391 86.2137 34.8711Z"
            fill="#F7F7F7" />
    </g>
    <defs>
        <clipPath id="clip0_50_5">
            <rect width="120" height="120" fill="white" />
        </clipPath>
    </defs>
</svg>